# xmcd
#
# Track frame offsets: 
#        150
#        14965
#        25177
#        39954
#        55647
#        68570
#        80102
#        89933
#        101958
#        113290
#        129627
#        143040
#        148557
#        161707
#        179378
#
# Disc length: 2573 seconds
#
# Revision: 2
# Processed by: cddbd v1.5.2PL0 Copyright (c) Steve Scherf et al.
# Submitted via: ExactAudioCopy v0.99pb4
#
DISCID=d20a0b0f
DTITLE=Various Artist - The National Reso-Phonic Instrumental Project
DYEAR=1900
DGENRE=Blues
TTITLE0=Steve James - The Gina Reel
TTITLE1=Steve James - Amos Johnson Rag
TTITLE2=Brooks Williams - Goodbye Walker Percy
TTITLE3=Brooks Williams - Frenzy at the Feeder
TTITLE4=Brooks Williams - Belfast Blues
TTITLE5=Paul Rishell - Boogie Woogie Dance
TTITLE6=Paul Rishell - Venessa
TTITLE7=Mary Flower - Bad JuJu
TTITLE8=Mary Flower - Slovak Stomp
TTITLE9=Catfish Keith - Doggone My Bad Luck Soul
TTITLE10=Catfish Keith - Butt Dance
TTITLE11=Michael Hakanson-Stacy - South Carolina Rag
TTITLE12=Michael Hakanson-Stacy - East of Bethel, West of Marlin
TTITLE13=Michael Hakanson-Stacy - Sweeping Dopyera's Workshop
TTITLE14=Mary Flower - 40 Something
EXTD=
EXTT0=
EXTT1=
EXTT2=
EXTT3=
EXTT4=
EXTT5=
EXTT6=
EXTT7=
EXTT8=
EXTT9=
EXTT10=
EXTT11=
EXTT12=
EXTT13=
EXTT14=
PLAYORDER=
